<svg width="7" height="4" viewBox="0 0 7 4" fill="none" xmlns="http://www.w3.org/2000/svg">
<path d="M0.938461 0.364C0.611794 0.233333 0.299128 0.130667 0.000460622 0.056L0.000460557 1.554C0.607127 1.666 1.13913 1.85267 1.59646 2.114C2.06313 2.37533 2.43179 2.72067 2.70246 3.15L3.58446 3.15C3.76179 2.85133 3.99046 2.59467 4.27046 2.38C4.55046 2.17467 4.85846 2.002 5.19446 1.862C5.53979 1.73133 5.89913 1.62867 6.27246 1.554L6.27246 0C5.97379 0.084 5.66579 0.191333 5.34846 0.322C5.04046 0.452667 4.74646 0.625333 4.46646 0.84C4.19579 1.05467 3.95779 1.31133 3.75246 1.61L2.59046 1.61L2.53446 1.61C2.37579 1.32067 2.15179 1.07333 1.86246 0.868C1.58246 0.662666 1.27446 0.494666 0.938461 0.364Z" fill="#3980AA"/>
</svg>
